#!OML:ASF H:\LiuWeirdWalks\Patient Classification 1\Patient 1\Session 1\male.ASF
:FULLY-SPECIFIED
:DEGREES
407
root -0.32605 17.8328 -28.41 5.65854 1.16931 -5.74379
lowerback 11.8545 -3.76909 5.78541
upperback 3.19205 -4.04565 6.2884
thorax -3.2157 -2.03354 3.93698
lowerneck -20.9429 5.92885 7.98322
upperneck 14.0064 9.33372 -18.0995
head 9.21408 3.01349 -6.25831
rclavicle 2.66371e-014 -3.81667e-014
rhumerus -22.5299 -32.0766 -11.9536
rradius 35.5815
rwrist -9.75352
rhand -28.9173 -0.923053
rfingers 7.12502
rthumb -2.27187 -30.8907
lclavicle 2.66371e-014 -3.81667e-014
lhumerus -28.6955 30.621 35.8875
lradius 42.5312
lwrist 15.0809
lhand -20.5924 -2.75662
lfingers 7.12502
lthumb 5.76786 27.1449
rfemur 0.291482 -1.70231 23.5975
rtibia 22.75
rfoot -13.4414 -16.3559
rtoes -11.8182
lfemur -28.4699 6.3124 -7.23313
ltibia 27.175
lfoot -0.00184831 11.9429
ltoes -13.1323
408
root -0.293307 17.8371 -28.3484 5.6909 1.08436 -6.00007
lowerback 11.8616 -3.78306 5.52667
upperback 3.18236 -4.10008 6.15608
thorax -3.22113 -2.06016 3.9489
lowerneck -20.9488 5.98861 8.01118
upperneck 14.0068 9.3281 -17.7263
head 9.18823 3.0485 -6.12703
rclavicle -4.37326e-015 -9.22361e-014
rhumerus -22.4971 -31.7445 -11.7067
rradius 35.6635
rwrist -9.43649
rhand -28.8654 -0.824007
rfingers 7.12502
rthumb -2.22171 -30.7922
lclavicle -4.37326e-015 -9.22361e-014
lhumerus -28.766 30.7551 36.0303
lradius 42.5442
lwrist 15.1827
lhand -20.6008 -2.63622
lfingers 7.12502
lthumb 5.75982 27.2655
rfemur 0.494347 -1.7769 23.6971
rtibia 22.6341
rfoot -13.1532 -16.0644
rtoes -12.2102
lfemur -28.5324 6.36739 -7.05358
ltibia 27.5433
lfoot 0.424365 11.7998
ltoes -12.1322
409
root -0.259171 17.8431 -28.286 5.72614 0.995927 -6.2453
lowerback 11.8698 -3.7827 5.26537
upperback 3.16428 -4.13552 6.0123
thorax -3.23704 -2.0773 3.94799
lowerneck -20.9107 6.01256 8.02467
upperneck 13.9704 9.26537 -17.3173
head 9.1308 3.06332 -5.98906
rclavicle 1.98785e-014 4.21423e-014
rhumerus -22.5164 -31.3971 -11.4455
rradius 35.7268
rwrist -9.13975
rhand -28.7162 -0.654013
rfingers 7.12502
rthumb -2.07759 -30.6236
lclavicle 1.98785e-014 4.21423e-014
lhumerus -28.8057 30.8615 36.1845
lradius 42.537
lwrist 15.2271
lhand -20.5554 -2.57254
lfingers 7.12502
lthumb 5.80359 27.328
rfemur 0.685421 -1.88837 23.7688
rtibia 22.5332
rfoot -12.8459 -15.7313
rtoes -12.6045
lfemur -28.5671 6.39786 -6.89791
ltibia 27.9004
lfoot 0.796597 11.7747
ltoes -11.0156
410
root -0.223775 17.8505 -28.2231 5.76651 0.917204 -6.48637
lowerback 11.8955 -3.78185 5.00481
upperback 3.12676 -4.16689 5.87482
thorax -3.28247 -2.09247 3.95539
lowerneck -20.8755 6.03155 8.03327
upperneck 13.9571 9.19884 -16.8974
head 9.08092 3.07615 -5.84828
rclavicle 1.61016e-014 1.00187e-013
rhumerus -22.5417 -31.0107 -11.1805
rradius 35.7766
rwrist -8.88426
rhand -28.496 -0.462547
rfingers 7.12502
rthumb -1.86492 -30.4341
lclavicle 1.61016e-014 1.00187e-013
lhumerus -28.8574 30.9686 36.3358
lradius 42.5052
lwrist 15.1848
lhand -20.4671 -2.54484
lfingers 7.12502
lthumb 5.88883 27.3533
rfemur 0.859919 -2.03911 23.8231
rtibia 22.4528
rfoot -12.5258 -15.3568
rtoes -12.9758
lfemur -28.5771 6.39475 -6.75568
ltibia 28.247
lfoot 1.08901 11.8443
ltoes -9.88343
411
root -0.18709 17.8588 -28.1593 5.80582 0.826629 -6.72573
lowerback 11.9265 -3.76874 4.74261
upperback 3.08269 -4.18136 5.74467
thorax -3.33735 -2.09914 3.96991
lowerneck -20.8693 6.0252 8.01238
upperneck 14.0127 9.10996 -16.4547
head 9.05442 3.07526 -5.70026
rclavicle -1.03368e-014 -1.66979e-014
rhumerus -22.5843 -30.5999 -10.9023
rradius 35.8335
rwrist -8.72794
rhand -28.2275 -0.288945
rfingers 7.12502
rthumb -1.60564 -30.2626
lclavicle -1.03368e-014 -1.66979e-014
lhumerus -28.9074 31.0652 36.5015
lradius 42.4652
lwrist 15.0943
lhand -20.3536 -2.55527
lfingers 7.12502
lthumb 5.99842 27.3398
rfemur 1.02347 -2.20412 23.8594
rtibia 22.3936
rfoot -12.2058 -14.9446
rtoes -13.3085
lfemur -28.5467 6.37127 -6.61782
ltibia 28.5771
lfoot 1.27463 12.0015
ltoes -8.79182
412
root -0.148789 17.8679 -28.0951 5.8463 0.74033 -6.95609
lowerback 11.9551 -3.78041 4.4669
upperback 3.04717 -4.23008 5.65452
thorax -3.37647 -2.1227 4.03897
lowerneck -20.8908 6.10195 8.035
upperneck 14.0774 9.14912 -16.1293
head 9.06405 3.1236 -5.582
rclavicle 6.81831e-014 -5.24792e-014
rhumerus -22.4736 -30.2286 -10.6684
rradius 35.874
rwrist -8.64622
rhand -27.9443 -0.147039
rfingers 7.12502
rthumb -1.33213 -30.1226
lclavicle 6.81831e-014 -5.24792e-014
lhumerus -29.0582 31.2578 36.6533
lradius 42.4346
lwrist 14.9356
lhand -20.2286 -2.56604
lfingers 7.12502
lthumb 6.11912 27.3256
rfemur 1.17281 -2.39859 23.869
rtibia 22.3591
rfoot -11.8852 -14.4997
rtoes -13.6152
lfemur -28.4855 6.31638 -6.49206
ltibia 28.8785
lfoot 1.36432 12.216
ltoes -7.87419
413
root -0.109117 17.8773 -28.031 5.88555 0.646851 -7.2034
lowerback 11.9726 -3.79225 4.20223
upperback 3.02095 -4.27865 5.59025
thorax -3.39806 -2.14619 4.12805
lowerneck -20.9722 6.19426 8.0572
upperneck 14.2382 9.22497 -15.8263
head 9.12359 3.18095 -5.46798
rclavicle -4.65156e-014 5.36719e-014
rhumerus -22.3179 -29.9032 -10.4398
rradius 35.9265
rwrist -8.68868
rhand -27.6704 -0.0594658
rfingers 7.12502
rthumb -1.06754 -30.0365
lclavicle -4.65156e-014 5.36719e-014
lhumerus -29.2417 31.4649 36.8153
lradius 42.4276
lwrist 14.7488
lhand -20.1076 -2.56796
lfingers 7.12502
lthumb 6.23594 27.3203
rfemur 1.30644 -2.59419 23.8854
rtibia 22.3498
rfoot -11.5566 -14.0303
rtoes -13.9146
lfemur -28.3951 6.24081 -6.34211
ltibia 29.1473
lfoot 1.36975 12.4826
ltoes -7.1882
414
root -0.068171 17.8869 -27.9671 5.92659 0.552331 -7.44462
lowerback 11.9835 -3.79835 3.94599
upperback 2.99721 -4.31933 5.52896
thorax -3.41381 -2.16569 4.21389
lowerneck -21.0494 6.28227 8.08554
upperneck 14.3851 9.29524 -15.5464
head 9.17879 3.2348 -5.36374
rclavicle 4.01545e-014 -3.81667e-014
rhumerus -22.1694 -29.6402 -10.2095
rradius 35.9977
rwrist -8.82966
rhand -27.4508 -0.0514008
rfingers 7.12502
rthumb -0.855478 -30.0294
lclavicle 4.01545e-014 -3.81667e-014
lhumerus -29.4044 31.6671 36.9893
lradius 42.4255
lwrist 14.5325
lhand -19.9782 -2.58399
lfingers 7.12502
lthumb 6.36088 27.3005
rfemur 1.42316 -2.79284 23.8842
rtibia 22.3665
rfoot -11.2266 -13.5445
rtoes -14.1984
lfemur -28.2847 6.12907 -6.19107
ltibia 29.3839
lfoot 1.30435 12.7989
ltoes -6.74425
415
root -0.0262033 17.8962 -27.9033 5.96974 0.447846 -7.68444
lowerback 11.9927 -3.7713 3.6929
upperback 2.97277 -4.31599 5.46536
thorax -3.4314 -2.16322 4.28903
lowerneck -21.1609 6.31492 8.06333
upperneck 14.5805 9.29479 -15.2083
head 9.24118 3.25597 -5.24223
rclavicle 5.58585e-014 -7.39479e-014
rhumerus -22.1129 -29.4734 -9.92094
rradius 36.0834
rwrist -9.01783
rhand -27.2795 -0.0800914
rfingers 7.12502
rthumb -0.690015 -30.0587
lclavicle 5.58585e-014 -7.39479e-014
lhumerus -29.4778 31.8274 37.216
lradius 42.4227
lwrist 14.3024
lhand -19.8329 -2.62048
lfingers 7.12502
lthumb 6.50114 27.2597
rfemur 1.52022 -2.97536 23.8742
rtibia 22.4131
rfoot -10.8952 -13.0557
rtoes -14.4764
lfemur -28.1585 6.00731 -6.0348
ltibia 29.5935
lfoot 1.17471 13.1346
ltoes -6.48216
416
root 0.0161976 17.9053 -27.8395 6.01888 0.331994 -7.91038
lowerback 11.9959 -3.73742 3.44417
upperback 2.93748 -4.30297 5.40044
thorax -3.45799 -2.1558 4.35917
lowerneck -21.2431 6.33573 8.03779
upperneck 14.7416 9.28104 -14.8991
head 9.28696 3.27073 -5.13205
rclavicle -3.12092e-014 -1.82882e-014
rhumerus -22.0601 -29.3511 -9.63466
rradius 36.1797
rwrist -9.23163
rhand -27.1819 -0.155129
rfingers 7.12502
rthumb -0.595728 -30.134
lclavicle -3.12092e-014 -1.82882e-014
lhumerus -29.5585 31.9549 37.4344
lradius 42.4392
lwrist 14.1146
lhand -19.7127 -2.67098
lfingers 7.12502
lthumb 6.61717 27.2056
rfemur 1.59384 -3.13827 23.8468
rtibia 22.4886
rfoot -10.5525 -12.5767
rtoes -14.7889
lfemur -28.0181 5.87242 -5.88545
ltibia 29.7789
lfoot 0.985572 13.4827
ltoes -6.36835
